<?xml version="1.0" encoding="utf-8" ?>
<svg xmlns="http://www.w3.org/2000/svg" xmlns:xlink="http://www.w3.org/1999/xlink" width="1536" height="1536">
	<path fill="#202C32" d="M929.471 391.546C931.535 391.447 935.745 391.019 937.298 392.25L936.52 394.736C934.064 395.449 932.022 396.248 929.447 395.625L929.471 391.546Z"/>
	<path fill="#202C32" d="M700.948 366.399C701.612 367.442 702.071 367.965 703.089 368.725L704.016 369.375L704.317 371.25C704.892 373.547 704.887 374.75 704.571 377.082L702.195 376.442C700.268 372.11 700.361 370.913 700.948 366.399Z"/>
	<path fill="#202C32" d="M579.798 1137.12C579.795 1138.91 579.592 1140.36 578.63 1141.9C577.018 1144.47 574.127 1145.31 571.333 1145.87C571.181 1144.7 571.328 1144.12 571.594 1143C572.741 1141.5 573.368 1140.63 575.155 1139.94C576.753 1139.34 577.88 1138.58 579.239 1137.55L579.798 1137.12Z"/>
	<path fill="#41484C" d="M338.095 834.682C333.311 835.098 330.004 834.893 325.875 832.177C327.171 830.869 330.376 830.773 332.257 830.449C334.367 832.14 335.981 831.87 338.608 831.904C339.987 831.922 339.435 831.782 340.496 832.292L338.252 833.074L338.095 834.682Z"/>
	<path d="M362.68 880.654C366.045 880.61 369.399 880.187 372.47 881.762C368.547 884.839 358.839 883.751 353.838 883.788C353.108 882.428 353.229 883.154 353.507 881.602C356.438 881.561 359.17 881.486 362.036 880.814L362.68 880.654Z"/>
	<path d="M340.729 883.065L324.557 881.58C322.859 881.275 322.961 881.373 321.983 879.982C327.601 878.537 333.572 879.057 339.286 879.559L340.729 883.065Z"/>
	<path fill="#454F52" d="M483.123 1082.94C484.683 1080.66 486.316 1077.34 489 1076.34C490.9 1076.65 492.893 1077.16 494.816 1077.04C493.268 1080.07 490.152 1082.82 487.912 1085.43C486.006 1084.86 484.437 1084.56 483.123 1082.94Z"/>
	<path fill="#202C32" d="M339.286 879.559L348.886 880.21L362.68 880.654L362.036 880.814C359.17 881.486 356.438 881.561 353.507 881.602C353.229 883.154 353.108 882.428 353.838 883.788C350.113 885.238 344.54 883.792 340.729 883.065L339.286 879.559Z"/>
	<path fill="#1D333C" d="M317.788 754.632C323.233 753.601 329.064 755.532 334.711 755.192L335.625 755.125C335.863 756.786 336.051 756.034 335.072 757.383L334.318 757.624L333.056 758.012C329.098 759.318 326.73 760.23 322.5 759.024C319.394 758.138 319.242 757.31 317.788 754.632Z"/>
	<path d="M1077.6 596.133C1077.84 601.203 1071.97 604.881 1071.9 609.634C1073.26 610.208 1074.47 610.875 1075.73 611.625L1075.12 612.776C1072.96 612.383 1072.01 612.24 1069.88 613.06L1068.65 617.128L1069.16 619.125L1067.62 617.222C1067.26 615.025 1066.67 611.227 1067.48 609.119C1068.21 607.224 1070.46 606.041 1071.73 604.478C1073.86 601.864 1075.71 598.922 1077.6 596.133Z"/>
	<path fill="#C0BEBB" d="M529.873 1095.22L532.219 1096.03C534.307 1098.47 536.99 1101.32 538.125 1104.37C539.151 1107.12 539.278 1108.5 538.141 1111.12L537.793 1109.93L536.031 1108.81L533.403 1111.39C533.306 1109.62 533.191 1110.33 533.733 1108.6C534.493 1106.17 532.076 1103.73 531.193 1101.38C530.487 1099.49 530.219 1097.21 529.873 1095.22Z"/>
	<path fill="#202C32" d="M1213.35 542.854L1215.38 543.754L1215.76 544.875C1213.46 547.4 1211.2 549.544 1207.88 550.593C1203.56 551.957 1199.82 554.411 1195.93 556.7L1194.24 556.219C1197.32 554.48 1199.48 551.83 1202.2 549.62C1205.56 546.894 1209.51 544.803 1213.35 542.854Z"/>
	<path fill="#202C32" d="M1154.86 919.051L1157.22 915.669C1158.03 914.977 1158.45 914.886 1159.35 914.538C1160.36 915.937 1161.27 917.135 1161.92 918.75L1161.1 919.125L1158.75 917.224L1158 918C1158.61 920.69 1160.49 926.146 1159.5 928.608L1158 929.062L1156.5 927.955L1155.88 928.875L1156.09 929.666C1156.37 930.967 1156.29 930.497 1155.94 932.008L1156.43 933.375L1156.23 935.815L1154.83 936.957C1153 935.958 1152.82 936.034 1152.05 934.125L1152.75 933.6L1153.68 933C1153.74 931.284 1153.7 929.499 1154.04 927.813L1154.98 923.246C1155.43 921.565 1155.24 920.787 1154.86 919.051Z"/>
	<path fill="#1D333C" d="M514.824 314.715C516.647 315.301 517.45 316.383 518.65 317.782L519.15 318.375C521.18 318.824 522.757 319.469 524.625 320.34C527.489 323.895 528.401 327.651 529.357 332.05C528.091 331.563 527.174 331.239 526.125 330.347C522.601 327.348 515.336 319.255 514.824 314.715Z"/>
	<path fill="#41484C" d="M318.686 667.076C322.875 666.53 326.275 667.328 330.375 667.495C333.502 667.622 337.589 666.74 340.518 667.88C342.075 668.487 341.854 668.842 342.517 670.264L340.666 670.25C333.07 671.177 324.405 672.048 316.875 670.412L316.534 668.625L318.686 667.076Z"/>
	<path fill="#454F52" d="M968.742 355.318C970.538 353.778 972.134 352.609 974.25 351.543L975.368 352.125L974.621 352.871C973.518 353.975 973.875 353.266 973.875 355.132C976.039 354.966 977.817 354.497 979.875 353.823C985.19 348.371 985.679 344.684 986.406 337.46C988.437 340.275 991.337 342.892 991.125 346.406C988.558 350.535 981.072 355.563 976.169 356.546C973.301 357.121 971.332 356.508 968.742 355.318Z"/>
	<defs>
		<linearGradient id="gradient_0" gradientUnits="userSpaceOnUse" x1="345.34537" y1="829.44849" x2="344.65097" y2="833.3219">
			<stop offset="0" stop-color="#29303F"/>
			<stop offset="1" stop-color="#31424D"/>
		</linearGradient>
	</defs>
	<path fill="url(#gradient_0)" d="M332.257 830.449C338.443 829.836 344.426 830.107 350.625 830.268C354.816 830.377 358.816 830.1 362.863 831.375C359.238 834.441 347.828 835.495 343.109 835.149L341.121 834.937L338.095 834.682L338.252 833.074L340.496 832.292C339.435 831.782 339.987 831.922 338.608 831.904C335.981 831.87 334.367 832.14 332.257 830.449Z"/>
	<path fill="#202C32" d="M1060.95 760.672L1053.05 760.253C1051.3 759.124 1050.68 759.063 1050.01 757.125C1053.31 754.843 1061.07 756.327 1064.93 756.756L1085.3 758.488C1080.97 761.376 1075.74 758.748 1070.95 760.156C1068.11 760.993 1064.26 760.055 1060.95 760.672Z"/>
	<path fill="#1D333C" d="M388.781 950.321L390.06 949.875C388.728 950.314 388.104 950.771 387.106 951.75C387.706 952.638 388.063 953.397 388.479 954.375L387.375 954.68L385.875 952.315L383.625 953.427L383.049 952.125L381.869 951.917L381.285 953.625L382.733 955.125L380.86 956.015C379.603 955.57 378.985 955.384 377.643 955.608C372.765 956.423 367.356 956.269 362.385 956.612L361.54 956.663C358.868 956.471 357.913 955.416 356.176 953.625C360.92 951.198 366.678 953.82 371.39 951.177L372.232 950.625C374.474 951.91 377.146 952.347 379.648 952.975L382.125 950.106L388.781 950.321Z"/>
	<path fill="#676A6C" d="M1169.21 759.058C1169.51 759.998 1169.85 761.922 1170.38 762.672C1171.04 763.624 1172.94 764.259 1173.53 765.222C1174.59 766.971 1174.24 770.784 1175.41 773.25C1174.19 773.806 1174.85 773.736 1173.32 773.164C1172.14 772.721 1171.34 772.253 1170.38 771.412L1170.16 772.49L1173.64 775.875L1173.38 776.894L1169.46 775.667C1169.08 777.329 1168.55 778.852 1169.05 780.538C1166.88 779.187 1166.23 778.376 1165.45 775.875C1165.17 774.963 1165.12 773.935 1165.03 772.994L1164.39 772.752C1162.57 772.048 1161.1 771.329 1159.49 770.22L1164.18 769.793C1166.12 769.33 1167.19 768.429 1168.32 766.875L1167.14 765.375C1167.06 762.573 1167.93 761.508 1169.21 759.058Z"/>
	<path fill="#454F52" d="M841.193 1237.57C842.685 1240.31 844.972 1244.4 843.639 1247.66C842.748 1249.83 835.916 1257.38 833.8 1258.16C832.42 1258.68 828.735 1257.29 827.198 1256.89L829.347 1248.47L831.351 1250.37L831.793 1251.07C833.241 1251.73 834.348 1250.36 836.25 1250.12C839.215 1246.62 839.374 1246.04 839.918 1241.47C840.151 1240.01 840.633 1238.92 841.193 1237.57Z"/>
	<path fill="#676A6C" d="M772.151 1333.14L771.176 1332.6C768.974 1331.14 768.366 1329.75 768.082 1327.12C767.876 1325.21 768.755 1323.61 769.875 1322.15C773.553 1319.99 775.955 1319.54 780.125 1320.51C781.565 1322.65 780.569 1324.5 780.122 1326.99C778.996 1329.03 777.85 1331.84 775.5 1332.67L772.151 1333.14Z"/>
	<path fill="#7D7E7F" d="M772.151 1333.14C771.915 1332.14 771.656 1331.36 771.211 1330.42L770.769 1329.53C772.858 1329 774.965 1327.3 776.712 1326.03L777.375 1325.53L780.122 1326.99C778.996 1329.03 777.85 1331.84 775.5 1332.67L772.151 1333.14Z"/>
	<path fill="#1D333C" d="M748.428 324.709L748.567 324.814C749.551 326.658 749.558 327.377 751.384 328.574C752.984 329.622 753.263 330.094 754.238 331.699L752.951 332.735L751.125 332.239C749.094 334.696 745.75 336.065 743.456 338.393L742.402 339.492C740.669 340.383 738.843 341.092 736.875 341.042C736.505 340.177 736.407 340.074 736.257 339C735.288 332.085 741.944 331.206 745.161 326.301C745.923 325.14 747.132 325.132 748.428 324.709Z"/>
	<path fill="#41484C" d="M832.985 1234.54C834.241 1233.88 835.39 1231.48 836.084 1230.29L841.193 1237.57C840.633 1238.92 840.151 1240.01 839.918 1241.47C839.374 1246.04 839.215 1246.62 836.25 1250.12C834.348 1250.36 833.241 1251.73 831.793 1251.07L831.351 1250.37L829.347 1248.47L829.05 1248.04C830.868 1242.81 829.314 1239.42 832.985 1234.54Z"/>
	<path fill="#202C32" d="M831.351 1250.37C832.279 1247.38 832.373 1242.58 834.239 1240.12C834.525 1241.57 834.944 1241.93 835.875 1243.03C837.361 1241.96 838.159 1241.88 839.918 1241.47C839.374 1246.04 839.215 1246.62 836.25 1250.12C834.348 1250.36 833.241 1251.73 831.793 1251.07L831.351 1250.37Z"/>
	<path fill="#7D7E7F" d="M764.469 284.619L765.664 283.191C768.665 279.884 769.501 279.667 773.818 279.48C775.682 279.601 779.393 279.373 780.744 280.5L779.275 282.375L779.798 282.881C780.544 283.718 780.613 284.313 780.808 285.375C780.015 285.996 779.436 286.38 778.527 286.793C776.668 287.636 775.028 290.279 773.842 291.928C771.664 294.955 767.426 299.716 763.875 300.803L762.464 301.27L761.334 301.624C762.761 297.177 766.664 293.713 768.657 289.478C769.696 287.271 770.394 286.163 772.114 284.44L772.688 283.875L772.496 282.754L771.375 282.548C769.573 283.548 767.928 284.56 765.813 284.617L764.469 284.619Z"/>
	<path fill="#202C32" d="M484.681 440.362C487.468 440.865 490.1 442.426 491.738 444.801C492.573 446.012 492.695 446.865 493.059 448.245C494.183 452.504 500.864 456.693 503.71 460.125C505.172 461.888 506.062 464.234 507.614 465.883C508.691 467.026 510.308 467.846 511.7 468.545C512.787 470.64 512.421 472.162 511.875 474.368L481.628 442.989L484.681 440.362Z"/>
	<path fill="#7D7E7F" d="M1161.99 666.826C1161.74 665.575 1161.62 664.992 1160.72 664.021L1160.04 663.375C1159.86 658.787 1156.46 656.521 1156.99 651.77L1157.07 651.118C1154.65 649.786 1151.81 647.771 1150.01 645.628C1148.69 644.052 1148.39 643.756 1148.62 641.763C1151.54 638.524 1154.36 637.524 1158.33 636.137L1156.52 640.125L1157.04 641.019C1157.63 642.11 1158.7 644.093 1158.74 645.375C1158.78 646.76 1158.31 647.858 1158.74 649.23C1159.22 650.794 1160.71 651.555 1160.93 652.125C1161.3 653.067 1160.59 653.93 1161.38 655.446L1163.75 655.674L1163.74 657.164L1165.7 659.625C1165.25 663.097 1165.1 666.92 1162.88 669.752C1163.02 668.076 1163.02 668.163 1161.99 666.826Z"/>
	<path fill="#454F52" d="M449.713 629.639C450.615 631.407 450.537 633.01 451.093 634.867C452.528 639.656 454.399 641.582 453.036 646.875C452.423 649.253 451.606 649.422 449.625 650.645C445.341 648.324 442.023 644.292 438.653 640.808L435.937 637.359C436.272 636.725 436.457 636.287 436.982 635.739C438.687 633.959 440.604 633.922 442.875 633.83C446.602 636.436 449.217 638.977 451.968 642.615L452.826 643.761L450.851 638.625C449.579 635.557 449.311 634.071 449.611 630.652L449.713 629.639Z"/>
	<path fill="#1D333C" d="M1013.62 1153.95C1021.96 1155.28 1033.18 1154.78 1039.68 1160.96L1039.5 1161.62C1036.05 1161.79 1033.28 1161.38 1029.94 1160.53C1029.2 1161.4 1028.71 1161.87 1027.69 1162.43L1026.81 1162.88C1028.28 1164.73 1029.36 1166.33 1030.3 1168.5L1029.6 1169.62C1027.69 1169.58 1025.13 1169.65 1023.4 1168.79C1018.15 1166.19 1015.79 1159.03 1013.62 1153.95Z"/>
	<path fill="#7D7E7F" d="M657.872 1134.03L658.606 1134.75L644.03 1152.99C640.598 1157.65 638.377 1163.52 633.775 1167.14L633.085 1167L632.25 1166.16L624.67 1171.54L624 1172.25L623.625 1171.65C626.522 1168.24 633.813 1161.35 634.975 1157.39C635.562 1155.39 635.743 1154.43 637.246 1152.89C637.93 1152.18 638.572 1151.56 639.135 1150.75C641.622 1147.18 644.789 1145.29 647.625 1142.19C651.801 1137.62 651.591 1136.33 657.872 1134.03Z"/>
	<path fill="#202C32" d="M640.688 1095.45L641.25 1095.75C639.593 1097.86 638.426 1100.36 636.796 1102.5C635.427 1104.3 633.619 1105.69 632.386 1107.61C629.153 1112.64 626.964 1117.81 623.295 1122.68C618.379 1129.21 611.162 1135.05 605.144 1140.64L613.753 1127.93C615.03 1126.18 617.07 1124.28 618.005 1122.38C618.846 1120.66 619.006 1118.65 619.838 1116.89C624.043 1108.03 633.035 1101.16 640.688 1095.45Z"/>
	<path fill="#454F52" d="M1090.67 869.436L1091.82 870.455C1093.12 870.438 1096.51 870.013 1097.62 870.382C1099.67 871.062 1098.43 872.195 1101.08 871.422L1103.05 872.737C1104.39 871.662 1103.84 872.22 1104.75 871.125C1105.14 871.981 1105.48 872.749 1105.7 873.663C1106.07 875.137 1106.87 876.4 1107.3 877.832L1106.3 878.512C1107.53 878.873 1108.22 879.319 1109.23 880.125L1108.88 881.6C1107.45 880.418 1108.23 880.638 1106.62 880.695C1106.81 882.446 1106.36 882.119 1106.25 883.5C1105.99 886.796 1106.78 883.349 1106 886.236L1104.97 884.18L1105.38 882.75L1104.75 882.155L1103.04 883.5C1103.82 885.584 1103.84 887.165 1103.78 889.339L1102.88 889.199C1102.53 888.185 1102.4 887.496 1102.37 886.402L1102.36 885.375L1101.05 885.375L1101.65 888.75L1101 889.351C1099.87 887.437 1099 885.328 1097.63 883.571L1095.08 880.5L1095.84 878.25C1094.66 877.236 1095.28 877.599 1093.57 876.993L1092.24 876.551C1092.59 877.56 1092.81 878.029 1093.6 878.799L1094.24 879.375L1093.88 880.838L1092.69 880.875L1091.09 877.622L1089.53 877.948C1087.1 875.454 1083.33 874.177 1081.61 871.125L1082.62 869.93C1083.71 871.224 1084.95 871.846 1086.38 872.705C1087.56 872.011 1088.57 871.298 1089.6 870.393L1090.67 869.436Z"/>
	<path d="M481.628 442.989C466.448 428.705 452.445 413.101 438.335 397.753C435.687 394.873 431.63 391.874 429.811 388.448C428.538 386.051 426.806 383.926 425.19 381.75L425.625 380.799C429.517 385.541 434.356 389.773 438.613 394.227L468.849 425.34C472.996 429.528 478.292 437.051 483.367 439.716L484.681 440.362L481.628 442.989Z"/>
	<path fill="#C0BEBB" d="M1120.39 557.825L1118.51 560.336L1118.64 561.329C1118.88 563.913 1118.42 564.864 1116.75 566.826C1114.97 566.36 1113.59 564.633 1112.13 564.264C1109.02 563.483 1104.76 565.342 1101.66 564.73C1100.7 564.539 1099.3 563.583 1098.38 563.155C1095.66 561.896 1093.72 560.662 1092.28 557.899C1088.79 551.186 1082.64 546.479 1078.86 540.032C1077.62 537.914 1077.74 537.696 1078.32 535.429C1079.87 534.225 1081.15 533.533 1082.93 532.785L1087.12 535.514C1088.23 537.954 1088.81 539.289 1088.05 541.875C1090.86 545.836 1092.42 551.051 1094.46 555.506C1095.94 556.34 1097.31 557.131 1098.66 558.18C1100.21 559.387 1101.65 560.557 1103.44 561.404C1106.7 562.945 1109.59 563.923 1113.08 562.668C1114.13 561.187 1115.02 559.818 1116.74 559.077C1118.3 558.413 1118.31 558.004 1119.26 556.651L1120.39 557.825Z"/>
	<path fill="#454F52" d="M764.469 284.619L765.813 284.617C767.928 284.56 769.573 283.548 771.375 282.548L772.496 282.754L772.688 283.875L772.114 284.44C770.394 286.163 769.696 287.271 768.657 289.478C766.664 293.713 762.761 297.177 761.334 301.624C761.713 302.216 761.505 301.798 761.625 302.995L760.125 302.178L734.315 330.838C737.251 324.596 741.113 319.41 745.598 314.21C748.979 310.289 753.551 306.386 755.388 301.5L754.36 300.375C751.568 299.64 751.93 303.699 749.142 304.125C750.46 302.546 751.816 301.139 751.985 298.995L752.046 297.662C752.973 293.753 761.283 287.293 764.469 284.619Z"/>
	<path fill="#1D333C" d="M1157.02 879.748C1159.05 879.66 1161.04 879.455 1163.02 880.009C1168.21 881.463 1174.58 881.41 1179.96 881.455C1183.57 881.485 1185.89 881.849 1189.52 880.875L1191.77 880.292C1194.34 879.798 1201.23 878.795 1203.27 880.125C1199.18 881.326 1193.73 880.889 1190.07 882.698C1188.38 883.532 1186.74 884.094 1184.96 884.686C1185.32 885.076 1186.94 885.579 1187.5 885.783L1188.46 886.125C1186.47 886.544 1184.64 887.295 1182.75 888.029C1180.58 887.592 1178.58 887.293 1176.38 887.161L1174.88 888.946C1170.38 888.672 1165.92 889.124 1161.55 890.184C1159.49 890.682 1158.63 889.741 1156.12 890.618C1155.23 889.264 1155.78 889.702 1154.62 889.118L1153.12 891.297L1152.19 890.996C1152.03 889.119 1151.4 887.153 1152.38 885.513L1153.04 886.125C1155.26 884.779 1155.92 882.08 1157.02 879.748Z"/>
	<path fill="#1D333C" d="M1085.3 758.488L1086.25 758.606C1094.63 759.58 1102.48 758.736 1110.75 758.904C1117.65 759.045 1124.81 761.528 1131.75 759.639L1132.12 760.323L1129.88 761.368L1129.68 762.678C1131.04 762.893 1131.73 762.826 1133.03 762.375L1132.88 763.471C1129.8 764.784 1127.18 765.062 1123.88 765.382L1122.4 765.534C1117.29 766.029 1113.14 765.223 1108.12 764.83L1065.3 761.572L1060.95 760.672C1064.26 760.055 1068.11 760.993 1070.95 760.156C1075.74 758.748 1080.97 761.376 1085.3 758.488Z"/>
	<path fill="#C0BEBB" fill-opacity="0.98431373" d="M377.178 704.866L378.468 704.673C380.851 704.269 382.998 703.033 384.438 701.086L383.428 699.75L384.375 698.185C388.807 696.588 391.681 693.425 395.697 691.637C396.981 691.066 401.494 691.524 403.125 691.493C403.792 693.337 405.569 694.229 407.092 695.431L406.673 697.065L407.25 698.329L412.584 703.125C411.737 704.987 410.757 705.322 409.125 706.448L407.625 704.31L404.538 704.596L399.476 705.429C394.743 705.802 389.628 704.725 385.125 706.682L384.598 709.875C381.063 709.921 378.384 708.089 375.375 706.441L375.102 705.375L377.178 704.866Z"/>
	<path fill="#454F52" d="M377.178 704.866C382.266 704.958 387.304 704.74 392.162 703.061L389.918 702.375L390.375 701.13C393.36 701.052 392.533 701.53 394.832 702.507C396.047 703.024 398.437 702.435 399.683 702.186L399.534 703.439L399.476 705.429C394.743 705.802 389.628 704.725 385.125 706.682L384.598 709.875C381.063 709.921 378.384 708.089 375.375 706.441L375.102 705.375L377.178 704.866Z"/>
	<path fill="#454F52" d="M404.538 704.596C402.524 701.702 399.821 699.04 397.494 696.375L397.875 694.925C401.557 694.232 402.273 695.706 405.613 696.747L406.673 697.065L407.25 698.329L412.584 703.125C411.737 704.987 410.757 705.322 409.125 706.448L407.625 704.31L404.538 704.596Z"/>
	<path fill="#202C32" d="M958.818 437.375L959.215 436.384C960.837 432.479 962.837 429.383 965.625 426.205C970.589 420.548 975.972 414.91 981.593 409.901C984.216 407.565 987.247 405.628 989.788 403.272C992.874 400.411 995.385 396.612 998.336 393.537L1016.89 375.975L1032.24 360.388C1034.5 358.273 1036.99 355.492 1039.88 354.342L1041.45 353.821L1042.12 353.599L959.05 437.931L958.818 437.375Z"/>
	<path fill="#1D333C" d="M1159.49 770.22L1150.5 768.543C1148.81 768.463 1147.19 768.372 1145.92 769.5L1148.62 772.352L1149.1 770.373L1150.25 770.498L1149.82 772.5L1148.62 773.335C1147.31 776.845 1152.6 781.304 1153.35 784.875C1150.07 783.145 1147.11 776.318 1145.67 773.058C1144.89 771.297 1144.18 771.162 1142.62 770.103C1142.04 767.583 1140.36 765.133 1139.1 762.868L1136.62 762.734L1136.3 761.625L1136.83 761.255L1137.75 760.679C1146.58 754.95 1157.93 760.579 1167.62 756.905L1168.5 756.547L1169.46 757.125L1169.21 759.058C1167.93 761.508 1167.06 762.573 1167.14 765.375L1168.32 766.875C1167.19 768.429 1166.12 769.33 1164.18 769.793L1159.49 770.22Z"/>
	<path fill="#1D333C" d="M560.913 1184.96C563.256 1188.31 564.926 1192 567.006 1195.5C569.483 1199.67 571.919 1203.2 573.747 1207.76C569.541 1209.17 564.988 1208.95 560.811 1210.45L559.377 1210.99L558.929 1211.61L557.374 1211.81L558.952 1209.38C557.563 1207.66 556.164 1207.62 554.162 1207.07C551.339 1206.29 550.667 1205.01 549.305 1202.62C549.242 1201.65 548.854 1199.76 549.065 1198.88C549.684 1196.3 553.091 1193.95 554.916 1192.12C557.094 1189.93 558.997 1187.38 560.913 1184.96Z"/>
	<path fill="#1D333C" d="M1157.48 825.153C1167.78 825.926 1176.88 828.99 1186.88 830.303C1189.81 830.688 1191.38 830.577 1194.27 829.665C1195.61 829.245 1196.81 829.819 1198.12 830.238C1201.16 831.208 1205.28 832.002 1208.32 830.7L1209 830.301L1209.97 830.625L1209.28 831.291C1207.27 832.817 1204.13 833.274 1201.71 833.895C1199.26 833.547 1198.59 833.117 1196.4 834.375L1195.29 833.625C1189.86 833.079 1183.86 834.92 1178.62 836.338C1172.56 837.983 1162.51 837.762 1156.88 834.664C1154.88 833.567 1153.75 832.063 1153.19 829.875C1154.16 827.061 1155.1 826.829 1157.48 825.153Z"/>
	<path fill="#202C32" d="M394.441 919.88C395.808 917.942 397.404 915.706 399.75 914.894C402.699 913.873 404.016 914.189 406.743 915.247L407.332 916.215C408.911 918.776 410.328 920.856 412.607 922.875C411.119 929.651 403.795 934.898 398.487 938.888L387.713 929.758L393.529 918.115L394.441 919.88Z"/>
	<path fill="#454F52" d="M394.441 919.88C395.808 917.942 397.404 915.706 399.75 914.894C402.699 913.873 404.016 914.189 406.743 915.247C405.827 916.17 403.445 918.062 402.897 919.125C401.967 920.929 403.094 921.082 401.25 922.743L400.132 922.125L400.609 919.875C398.686 919.875 398.87 921.742 397.021 920.808C396.119 920.352 395.411 920.105 394.441 919.88Z"/>
	<defs>
		<linearGradient id="gradient_1" gradientUnits="userSpaceOnUse" x1="1111.8645" y1="744.922" x2="1119.108" y2="724.49554">
			<stop offset="0" stop-color="#0E2125"/>
			<stop offset="1" stop-color="#25292F"/>
		</linearGradient>
	</defs>
	<path fill="url(#gradient_1)" d="M1152.41 731.703C1153.2 731.35 1154 731.42 1154.86 731.38C1154.52 733.327 1153.57 734.497 1152.51 736.125C1151.14 736.153 1150.13 736.431 1148.83 736.875C1149.96 737.07 1150.96 737.274 1152.06 737.625C1150.77 738.793 1150.04 739.87 1148.29 740.173L1148.28 739.5L1148.44 738.375C1147.75 737.971 1147.14 737.405 1146.38 737.164C1144.61 736.604 1140.06 737.231 1137.95 737.242L1102.96 737.882C1096.3 738.001 1089.9 737.43 1083.19 737.882L1074.75 737.842L1074.17 736.5C1076.97 732.919 1082.92 733.296 1087.19 732.424C1088.51 732.153 1089.47 731.847 1090.82 732.135C1096.69 733.382 1105.97 733.648 1111.82 732.265C1112.83 732.024 1112.4 732.03 1113.44 732.059L1152.41 731.703Z"/>
	<path fill="#202C32" d="M534.651 1124.53L537.375 1126.64L537.149 1128L541.321 1134.01C541.338 1135.58 541.457 1136.72 542.035 1138.17C542.483 1139.3 542.821 1140.3 543.067 1141.5C541.601 1143.62 539.603 1144.64 537.8 1146.42C532.68 1151.47 527.461 1155.76 521.586 1159.92C520.042 1161.19 519.837 1161.55 517.875 1161.73L515.211 1159.5C515.374 1148.89 527.001 1143.24 531.689 1135.12C533.547 1131.91 534.121 1128.15 534.651 1124.53Z"/>
	<path fill="#41484C" d="M1115.06 854.474L1118.33 856.125C1119.05 858.918 1117.59 859.625 1119.38 861.797C1120.47 861.701 1120.99 861.65 1122 861.154C1122.7 862.804 1122.45 863.289 1122.27 864.987C1122.14 866.3 1122.13 866.518 1122.85 867.559C1124.06 869.289 1122.99 867.634 1123.63 869.831L1124.07 870.58L1122.32 870.375C1121.94 871.788 1121.81 871.575 1122.38 873.078L1123.5 872.497L1123.88 874.629L1124.97 876.375L1124.62 877.858L1122.38 875.182C1122.2 875.708 1122.13 881.324 1122.38 881.973L1122.98 882.766L1121.2 884.625C1121.77 886.184 1121.28 885.557 1122.67 886.5C1122.05 887.316 1121.44 888.01 1120.74 888.75L1121.62 889.343C1123.34 888.885 1122.9 888.654 1124.62 889.639C1125.7 889.273 1126.3 888.973 1127.24 888.375L1126.91 887.555L1126.22 885.503C1125.86 884.299 1126.07 884.789 1125.16 883.704C1126.98 884.184 1127.11 884.42 1128.38 885.843L1129.97 883.875C1129.86 884.842 1129.7 886.483 1129.12 887.348C1128.98 887.558 1127.93 888.243 1127.89 888.375C1127.59 889.497 1128.36 890.163 1127.62 891.929L1126.12 890.204L1124.97 890.625L1125.67 891.892L1126.35 893.147C1124.37 892.472 1124.12 891.944 1122.75 890.436L1121.71 891C1122.39 892.186 1123.36 893.439 1123.65 894.764L1121.66 896.644L1119.84 895.875C1119.35 894.364 1118.84 893.869 1119.36 892.359C1120.17 890.046 1119.99 887.33 1120.27 884.898L1119.38 884.149L1119.38 883.246L1120.5 882.375C1120.54 879.656 1119.27 876.967 1120.12 874.491L1119 873.807L1116.81 874.875C1117.27 876.458 1116.83 875.505 1117.68 876.597C1118.77 877.995 1119.46 879.963 1119.25 881.721L1116.09 880.654C1116.32 881.646 1117.97 884.982 1118.62 885.699C1115.77 885.091 1115.85 882.412 1113.17 884.071L1112.93 882.236L1110.94 882.375L1110.38 881.388L1112.07 881.107L1111.88 879.731L1110.19 879.633L1110.96 878.625L1110.38 877.886L1109.29 878.501L1107.3 877.832C1106.87 876.4 1106.07 875.137 1105.7 873.663C1105.48 872.749 1105.14 871.981 1104.75 871.125C1103.84 872.22 1104.39 871.662 1103.05 872.737L1101.08 871.422C1102.6 868.969 1102.1 866.263 1103.62 863.98L1105.98 865.091L1106.88 864.75C1106.23 863.05 1106.02 863.314 1106.62 861.438C1107.87 861.458 1108.77 861.474 1109.95 861.926L1110.75 862.278C1111.74 861.95 1112.27 861.807 1113.33 861.951L1114.12 862.099L1115.53 860.625L1114.88 859.882C1115.13 858.888 1115.43 858.1 1115.86 857.156L1116.35 856.125L1115.06 854.474Z"/>
	<path fill="#1D333C" d="M968.742 355.318C966.145 354.428 962.256 348.025 960.935 345.612C964.828 340.276 970.54 334.169 975.75 329.999C981.754 331.144 982.715 332.924 986.406 337.46C985.679 344.684 985.19 348.371 979.875 353.823C977.817 354.497 976.039 354.966 973.875 355.132C973.875 353.266 973.518 353.975 974.621 352.871L975.368 352.125L974.25 351.543C972.134 352.609 970.538 353.778 968.742 355.318Z"/>
	<path d="M1115.16 380.984L1115.8 381.75C1114.57 384.791 1112.63 387.351 1110.49 389.815C1105.39 395.681 1099.27 400.449 1093.86 405.963L1048.09 450.698C1043.9 454.481 1039.95 458.839 1035.45 462.223L1027.4 469.328C1026.39 467.973 1026.67 468.771 1026.77 466.875C1029.68 464.373 1030.91 460.992 1033.6 458.522L1062.93 432.219C1080.31 415.15 1096.68 396.912 1115.16 380.984Z"/>
	<path fill="#202C32" d="M414.878 611.682L415.59 613.875C415.376 614.452 414.819 615.681 414.948 616.362C415.005 616.661 417.473 618.863 417.802 619.187C423.074 624.375 431.929 629.646 434.898 636.375L433.875 636.734C430.02 633.399 426.923 629.45 423.173 626.088C419.38 622.687 414.52 620.04 410.54 616.689C407.654 614.259 405.182 611.413 402.375 608.909C399.903 606.703 397.014 605.031 394.555 602.782C392.543 600.941 391.078 598.56 389.057 596.77C385.622 593.726 382.793 590.405 379.882 586.875L381 585.375L382.125 584.964C383.552 584.322 384.291 583.594 385.941 583.677L386.969 583.794C389.085 583.733 389.738 583.663 391.875 584.247C392.939 585.925 393.729 587.656 394.542 589.461C399.617 592.562 402.274 595.508 405.466 600.36C407.064 602.787 409.666 604.102 411.737 606.062C413.279 607.522 414.099 609.75 414.878 611.682Z"/>
	<path fill="#454F52" d="M394.542 589.461C399.617 592.562 402.274 595.508 405.466 600.36C407.064 602.787 409.666 604.102 411.737 606.062C413.279 607.522 414.099 609.75 414.878 611.682C413.185 611.181 411.578 610.571 410.154 609.505L409.504 608.996L408.375 608.618C407.628 607.262 407.454 606.878 406.118 606L405.375 607.118C401.401 606.373 399.848 603.91 397.132 601.125L398.002 598.496L397.293 597.193C395.786 597.962 395.028 597.995 393.375 598.118L386.632 591.375L387.004 589.504L388.875 589.132L391.118 591.375C392.184 591 392.963 590.698 393.879 590.005L394.542 589.461Z"/>
	<path fill="#1D333C" d="M483.123 1082.94C484.437 1084.56 486.006 1084.86 487.912 1085.43L487.692 1085.78C483.173 1093.54 475.744 1099.73 469.403 1106.02C463.555 1111.82 457.807 1117.54 451.539 1122.88C447.309 1126.49 443.393 1130.59 438.373 1133.16C436.782 1133.97 435.67 1134.95 433.938 1134.38C436.007 1124.98 474.252 1090.58 483.123 1082.94Z"/>
	<path fill="#1D333C" d="M871.264 1156.78C874.302 1159.46 875.648 1162.96 877.983 1166.16C880.134 1169.12 883.02 1171.77 884.932 1174.88C886.756 1177.84 887.535 1181.33 889.555 1184.25C891.493 1187.05 894.158 1189.41 896.189 1192.2C897.789 1194.39 898.763 1196.95 900.262 1199.2C901.504 1201.07 903.233 1202.78 903.605 1205.04C902.714 1204.52 902.091 1204.27 901.125 1203.97C901.075 1205.08 901.269 1205.5 900.56 1206.4C899.132 1206.65 897.697 1206.64 896.25 1206.69C893.389 1204.85 890.949 1202.46 888.823 1199.8C886.815 1197.3 885.712 1194.15 884.003 1191.44C881.466 1187.41 878.416 1183.8 875.359 1180.16C872.744 1177.05 866.33 1171.03 865.356 1167.38C866.055 1165.26 867.517 1164.39 869.213 1163.09C870.573 1162.05 870.871 1158.55 871.264 1156.78Z"/>
	<path fill="#1D333C" d="M1119.26 556.651C1118.92 555.422 1118.61 554.363 1118.62 553.077L1118.73 550.747C1116.83 549.033 1114.74 546.834 1112.51 545.582C1110.35 544.372 1107.25 544.395 1105.52 542.54C1103.47 540.347 1105.5 535.66 1102.15 532.5C1103.26 531.372 1102.82 531.42 1104.56 531.34C1106.98 531.23 1108.87 530.709 1110.75 529.133L1111.64 528.431L1114.88 525.624L1121.25 527.369L1121.6 527.95C1125.27 534.013 1130.9 539.068 1135.44 544.534C1132.52 547.882 1129.96 551.112 1126.12 553.44C1124.46 554.453 1123.05 555.638 1121.61 556.939C1120.92 557.565 1121.22 557.324 1120.39 557.825L1119.26 556.651Z"/>
	<path fill="#202C32" d="M657.918 1225.02C659.712 1226.04 660.25 1226.15 660.996 1228.12C659.041 1228.85 659.17 1229.4 658.145 1231.12C659.269 1231.49 660.226 1231.82 661.422 1231.88L662.19 1231.88C660.579 1232.46 660.753 1232.51 659.78 1233.75L661.125 1234.61L660.167 1236.05L660.375 1236.75C662.573 1235.51 663.379 1234.72 665.935 1234.88C666.146 1236.06 666.268 1237.6 666.952 1238.64L667.546 1239.38C669.598 1241.98 671.063 1243.57 670.438 1247.11C669.458 1252.67 663.4 1257.46 658.917 1260.03L655.691 1259.73C652.357 1256.89 650.496 1255.18 650.125 1250.65L650.075 1249.88C647.37 1250.31 644.084 1252.73 641.637 1254.07C643.495 1250.96 645.791 1247.8 646.639 1244.25L643.543 1242.38L644.061 1240.05C646.076 1234.81 652.863 1227.2 657.918 1225.02Z"/>
	<path fill="#202C32" d="M827.198 1256.89C821.904 1253.96 817.283 1249.43 813.299 1244.91C811.287 1242.62 810.706 1241.05 811.088 1238.01C811.544 1234.37 815.066 1223.93 817.951 1221.65C820.002 1220.03 820.502 1218.13 821.326 1215.75C827.082 1220.02 832.045 1224.29 836.084 1230.29C835.39 1231.48 834.241 1233.88 832.985 1234.54C829.314 1239.42 830.868 1242.81 829.05 1248.04L829.347 1248.47L827.198 1256.89Z"/>
	<path fill="#1D333C" d="M829.05 1248.04L828.695 1247.71C825.809 1244.39 827.282 1239.95 827.653 1235.78C830.148 1233.96 830.103 1234.18 832.985 1234.54C829.314 1239.42 830.868 1242.81 829.05 1248.04Z"/>
	<path fill="#202C32" d="M1168.51 698.596L1177.19 698.593C1174.27 700.671 1171.05 704.245 1167.32 703.61C1159.94 702.354 1153.11 703.258 1145.74 703.917C1140.77 704.362 1135.65 704.491 1130.76 705.544C1127.89 706.164 1122.58 706.469 1120.63 708.546C1126.71 708.389 1133.56 706.52 1139.52 707.445C1142.92 707.974 1147.71 708.573 1151.06 707.75C1155.33 706.701 1165.48 706.079 1169.62 707.335L1170.17 708.75C1171.46 708.983 1173.13 708.052 1174.97 708.237C1173.53 708.812 1172.93 708.983 1171.88 710.168L1175.25 710.888L1175.62 711.722L1174.12 713.265C1171.02 713.272 1167.62 713.56 1164.59 712.873L1143.44 712.59C1139.94 712.573 1135.89 712.925 1132.46 712.275C1129.74 711.758 1126.98 712.072 1124.25 711.717C1120.49 711.226 1117.1 709.961 1113.38 711.621C1110.13 713.069 1108.97 717.995 1107.89 721.125L1106.62 721.356C1107.58 718.227 1108.21 713.835 1110.6 711.514C1111.58 710.564 1111.97 710.432 1112.14 708.953C1109.91 708.641 1109.47 708.752 1107.85 707.25L1108.57 705.889C1109.85 705.244 1111.09 704.645 1112.27 703.822C1113.39 703.038 1114.26 702.28 1115.68 702.112L1168.51 698.596Z"/>
	<path fill="#202C32" d="M566.394 283.284C569.832 284.65 573.028 288.367 575.57 291.035L591.191 307.917L641.158 359.698L683.916 400.991L707.42 423.97C706.185 423.665 705.283 423.256 704.186 422.607C691.866 415.32 680.566 402.854 670.238 392.909L636.375 359.987L592.488 313.191L576.034 295.624C572.723 292.139 567.569 288.026 566.394 283.284Z"/>
	<path fill="#1D333C" d="M891.584 315.942L891.661 315.86C893.889 314.34 895.258 314.033 897.922 314.135C904.429 318.455 906.353 323.138 908.885 330.212C909.321 331.431 909.526 334.158 910.125 335.108C912.163 338.342 912.899 337.801 911.09 341.774C909.363 341.585 907.756 341.457 906.015 341.486C904.154 341.516 902.492 341.205 900.677 340.854C899.704 343.909 902.13 345.781 903.557 348.574C901.574 348.016 901.252 347.43 899.828 345.895L899.019 346.247C897.622 345.518 896.695 345.247 895.125 345.115L896.198 346.565L895.875 347.449C894.635 346.679 894.054 346.302 893.337 344.972L892.875 343.985L890.625 344.549C887.237 340.7 885.125 337.377 882.962 332.764C882.533 329.444 881.854 328.345 883.38 325.125L881.994 324.375C882.95 321.413 888.997 318.023 891.584 315.942Z"/>
	<path fill="#202C32" d="M891.584 315.942L891.661 315.86C893.889 314.34 895.258 314.033 897.922 314.135L897.382 316.875L900.382 319.875L900.375 322.132C898.677 321.328 897.916 319.483 896.25 318.382L894 320.633L892.118 320.625C891.995 319.043 891.924 317.494 891.584 315.942Z"/>
	<path fill="#1D333C" d="M882.962 332.764L884.205 332.272C885.693 331.67 886.878 330.904 888.197 330L887.556 327.216C888.572 325.967 889.122 325.607 890.657 325.125C891.201 323.439 890.957 323.157 892.5 322.132L895.875 322.132C896.805 323.296 897.279 323.508 897.426 325.008C897.679 327.59 898.618 328.876 900.244 330.75L900.368 333.375C898.937 334.744 897.325 335.98 896.625 337.882L898.875 340.882L900.677 340.854C899.704 343.909 902.13 345.781 903.557 348.574C901.574 348.016 901.252 347.43 899.828 345.895L899.019 346.247C897.622 345.518 896.695 345.247 895.125 345.115L896.198 346.565L895.875 347.449C894.635 346.679 894.054 346.302 893.337 344.972L892.875 343.985L890.625 344.549C887.237 340.7 885.125 337.377 882.962 332.764Z"/>
	<path fill="#1D333C" d="M1161.99 666.826C1161.16 668.368 1160.6 669.989 1159.97 671.625L1161.38 672.31C1161.38 672.694 1159.5 674.562 1159.12 674.984C1157.04 674.47 1156.69 674.788 1154.87 674.834C1153.56 674.867 1150.69 673.285 1149.38 672.771C1145.23 666.736 1138.39 663.085 1134.52 656.319C1133.34 654.262 1132.99 652.292 1133.64 649.986C1135.45 643.624 1143.61 638.995 1148.2 634.609C1151.86 631.11 1155.31 626.085 1159.88 623.758C1161.8 628.026 1159.8 632.024 1158.33 636.137C1154.36 637.524 1151.54 638.524 1148.62 641.763C1148.39 643.756 1148.69 644.052 1150.01 645.628C1151.81 647.771 1154.65 649.786 1157.07 651.118L1156.99 651.77C1156.46 656.521 1159.86 658.787 1160.04 663.375L1160.72 664.021C1161.62 664.992 1161.74 665.575 1161.99 666.826Z"/>
	<path fill="#1D333C" d="M423.181 861.574C423.481 863.016 423.555 862.479 423.151 863.835L422.841 864.75L423.375 865.723C428.736 864.538 432.959 864.901 437.99 867.149C439.096 868.575 440.299 869.863 440.594 871.702L440.632 872.625C443.694 874.475 446.358 877.581 447.735 880.875C446.656 883.314 445.348 883.447 443.016 884.625L443.614 884.484L440.399 894.87L439.978 895.463C437.918 897.649 434.195 898.011 431.38 897.911C428.984 897.825 425.158 896.554 423.801 894.375C422.27 891.917 421.759 891.43 419.625 889.453C416.495 886.553 415.392 880.958 415.272 876.891C415.17 873.414 416.41 870.201 418.83 867.738C420.511 866.026 421.575 864.479 422.741 862.383L423.181 861.574Z"/>
	<path fill="#1D333C" d="M1118.05 587.862C1119.53 595.044 1125.16 598.49 1130.98 602.393C1133.68 604.2 1135.77 604.829 1137.69 607.632L1138.12 608.303L1140.75 607.658C1142.66 607.354 1144.65 606.756 1146.27 607.875C1145 609.151 1144.28 609.918 1142.57 610.594C1141.16 611.149 1139.62 611.526 1138.34 612.375C1137.03 613.248 1136.65 614.41 1136.31 615.846C1135.92 617.508 1135.46 619.013 1134.89 620.625C1137.21 621.87 1137.78 624.153 1139.62 625.454C1140.19 625.853 1142.23 626.087 1143 626.273C1145.66 625.527 1148.97 624.267 1151.68 624.966C1149.35 626.278 1146.37 628.194 1143.67 628.528C1141.54 628.791 1139.43 628.381 1137.31 628.747C1131.59 629.737 1127.04 628.943 1121.35 628.288C1116.07 627.087 1108.83 627.551 1104.2 630.525L1102.1 631.9L1101.24 628.875L1102.87 626.976C1104.34 625.568 1106.57 624.934 1108.57 625.074C1110.92 625.238 1113.13 625.629 1115.44 624.932C1116.94 624.479 1118.19 624.231 1119.75 623.988C1121.92 625.236 1123.27 625.288 1125.75 625.222L1125.79 624.952C1124.41 622.875 1123.08 621.234 1121.15 619.642L1120.31 618.96C1118.42 617.403 1117.01 616.08 1114.53 615.66L1107.74 614.308C1111.24 605.939 1111.8 594.628 1118.05 587.862Z"/>
	<path fill="#1D333C" d="M1154.83 936.957L1156.88 939.813L1156.5 940.398C1154.93 938.895 1153.51 937.378 1151.35 936.812L1149.99 936.497L1149.49 934.125L1148.89 934.875C1147.18 935.531 1146.64 935.383 1144.88 935.147L1142.13 931.125L1141.02 930.992L1142.39 935.25L1141.88 935.861C1141.28 934.327 1140.57 931.433 1139.67 930.149C1139.27 929.573 1137.19 928.425 1136.59 928.002L1128.34 921.869L1126.23 902.625C1126.11 900.643 1126.3 899.095 1126.66 897.152L1128.38 896.923L1128.85 895.646C1130.58 896.047 1131.95 896.067 1133.72 895.965L1132.28 891.775L1131.95 891.061L1133.09 891.135L1134.8 893.625L1135.5 894.686L1137.66 893.381C1137.67 894.617 1137.89 895.697 1138.12 896.907C1139.99 896.964 1140.93 897.183 1142.37 898.416L1143 899.01L1145.25 897.591C1146.67 897.922 1147.48 898.034 1148.96 897.771L1150.12 897.512L1150.4 898.431L1146.38 900.223C1147.76 901.141 1147.35 900.54 1147.8 901.875L1146.11 903.75C1146.14 906.269 1145.79 908.94 1147.17 911.17C1148.54 913.373 1150.5 913.811 1152.84 914.448L1153.5 914.625L1154.86 919.051C1155.24 920.787 1155.43 921.565 1154.98 923.246L1154.04 927.813C1153.7 929.499 1153.74 931.284 1153.68 933L1152.75 933.6L1152.05 934.125C1152.82 936.034 1153 935.958 1154.83 936.957Z"/>
	<path fill="#202C32" d="M892.657 1093.08C894.942 1094.63 896.62 1098.93 897.972 1101.38L898.875 1101.41L900.375 1101.23C905.715 1105.45 915.439 1114.17 917.368 1120.74C918.605 1124.96 923.118 1129.41 925.868 1132.88L949.988 1162.25L963.382 1179.96C967.506 1185.04 974.158 1189.48 975.864 1195.95L976.042 1196.7C979.071 1194.38 981.933 1191.29 985.265 1189.5C987.157 1188.48 987.685 1189.1 989.625 1189.65C993.186 1193.68 995.894 1197.68 998.023 1202.62L996.893 1205.36C994.065 1207.85 992.062 1209.09 988.31 1209.61C986.983 1209.79 986.199 1209.92 985.051 1210.7L986.48 1212.75L985.875 1213.75L984 1213.48C980.24 1210.18 976.43 1206.55 975.445 1201.39C975.163 1199.91 975.071 1199.15 974.163 1197.95L968.401 1189.24L894.076 1099.02L893.632 1098.38C891.758 1104.53 890.946 1110.83 889.24 1117.01C887.217 1124.33 882.929 1131.14 883.63 1139.25C883.86 1141.91 885.616 1143.04 887.346 1144.88L887.201 1146.64L883.875 1143.66C882.654 1142.64 881.889 1142.17 881.344 1140.59C880.118 1137.03 883.045 1125.62 884.594 1122C885.094 1120.84 885.495 1120.29 885.38 1118.97L885.211 1118.25L885.75 1117.49L886.709 1118.62L887.625 1118.3C888.02 1115.1 888.034 1111.64 888.744 1108.5C889.179 1106.58 890.227 1104.8 890.625 1102.88C891.383 1099.22 891.081 1096.74 892.657 1093.08Z"/>
	<path fill="#202C32" d="M698.813 1163.1C698.882 1166.56 697.477 1171.93 697.999 1175.04C698.157 1175.99 699.764 1177.19 700.439 1177.8C704.145 1181.17 708.616 1184.49 711.825 1188.3C712.573 1189.19 714.019 1190.79 714.375 1191.88C714.718 1192.93 714.389 1195.89 714.919 1196.62C715.501 1197.44 716.825 1197.33 717.526 1198.49C718.686 1200.41 718.845 1202.85 718.226 1204.97L714.156 1204.88C714.15 1205.88 714.62 1207 714.137 1207.88C714.048 1208.04 711.922 1209.12 711.674 1209.38C711.072 1209.98 710.849 1210.88 710.436 1211.62C707.624 1212.97 705.335 1213.32 702.247 1213.48C695.486 1211.87 690.067 1208.74 684.332 1204.92C682.493 1203.7 680.561 1202.96 679.452 1200.95C675.934 1194.58 693.03 1180.54 695.769 1175.18C697.435 1171.92 697.872 1166.7 698.813 1163.1Z"/>
	<path fill="#1D333C" d="M744.74 1222.9L746.034 1222.42C750.887 1223.78 757.282 1233.23 759.794 1237.5C760.45 1245.68 753.663 1249.15 750.544 1255.67C749.057 1258.78 749.703 1259.44 750.713 1262.62C747.731 1264.15 744.977 1262.86 741.802 1262.11C737.996 1260.66 732.022 1259.32 728.865 1257.02C725.132 1254.3 722.586 1249.5 722.119 1244.95C721.448 1238.42 724.889 1235.06 728.879 1230.33C730.251 1228.7 733.479 1224.43 735.431 1223.67C737.579 1222.83 742.277 1223.1 744.74 1222.9ZM742.155 1227.21L739.497 1231.27C736.814 1235.56 733.334 1236.84 731.953 1242C733.043 1243.26 732.361 1242.73 733.892 1243.44C735.76 1244.3 736.689 1245.56 738.69 1246.13C739.88 1244.75 740.981 1243.21 742.5 1242.2L743.941 1242.38L747.375 1239.69L747.034 1239.05C746.104 1237.22 746.021 1236.21 746.04 1234.12L745.359 1233.21C744.361 1231.62 744.335 1230.31 744.234 1228.5C742.915 1227.3 743.632 1227.69 742.155 1227.21Z"/>
	<path fill="#1D333C" d="M1090.67 869.436L1089.13 868.875C1087.57 868.574 1086.17 868.634 1084.6 868.103C1082.47 867.387 1081.04 866 1080.05 864L1080.59 863.467L1083 864.665L1083.65 863.625C1082.46 863.151 1081.46 862.771 1080.17 862.611L1079.25 862.531C1076.57 859.647 1072.61 857.008 1072.45 852.953L1072.43 852.243C1070.88 852.738 1069.62 852.773 1068 852.764C1068 851.663 1070.39 850.278 1070.95 848.625C1068.21 846.549 1063.62 845.02 1061.72 842.278C1060.89 841.092 1061.66 841.824 1060.44 840.801L1056.09 836.933L1056.38 836.145L1059.75 837.812L1060.43 837.375C1059.14 835.883 1058.67 835.536 1058.34 833.625C1060.29 832.874 1060.9 832.344 1062.08 830.625L1061.16 827.625C1061.75 824.812 1062.68 821.772 1064.32 819.375C1066.67 815.941 1068.08 812.743 1069.86 808.992C1076.2 812.46 1081.36 817.182 1086.56 822.134L1086.03 825L1086.75 825.773C1087.62 824.888 1088.37 824.184 1089.38 823.442L1095.35 829.874L1096.1 830.625L1095 831.275L1093.73 829.845C1092.47 830.769 1092.04 831.473 1091.37 832.875L1093.74 834.375C1095.17 833.855 1094.59 834.22 1095.85 833.004L1096.8 832.055L1100.62 835.452L1100.62 836.41C1100.9 837.974 1100.99 837.71 1102.12 838.793L1102.43 837.75L1103.23 837.375C1103.1 838.842 1102.93 838.973 1103.59 840.375L1106.07 840.963L1106.62 842.272L1105.16 841.875L1105.1 842.625L1107.38 844.424L1109.13 843.888C1108.79 845.817 1108.74 844.863 1109.28 846.75C1110.6 847.634 1110.48 847.695 1111.12 849.021L1110.38 849.767L1107.38 846.026L1106.96 847.125C1107.98 849.628 1109.93 850.756 1110.97 853.042L1111.28 853.875L1112.7 853.943L1114.12 852.375L1115.06 854.474L1116.35 856.125L1115.86 857.156C1115.43 858.1 1115.13 858.888 1114.88 859.882L1115.53 860.625L1114.12 862.099L1113.33 861.951C1112.27 861.807 1111.74 861.95 1110.75 862.278L1109.95 861.926C1108.77 861.474 1107.87 861.458 1106.62 861.438C1106.02 863.314 1106.23 863.05 1106.88 864.75L1105.98 865.091L1103.62 863.98C1102.1 866.263 1102.6 868.969 1101.08 871.422C1098.43 872.195 1099.67 871.062 1097.62 870.382C1096.51 870.013 1093.12 870.438 1091.82 870.455L1090.67 869.436Z"/>
	<path fill="#1D333C" d="M752.046 297.662L743.581 304.907C742.756 305.631 741.011 307.607 740.06 308.003C739.36 308.295 737.346 308.119 736.5 308.155C732.653 306.732 729.513 302.511 726.68 299.625C718.794 291.592 710.25 283.561 703.738 274.375L725.179 252.463C726.545 251.102 729.858 247.097 731.526 246.375C732.253 246.061 733.092 246.144 733.875 246.028C738.422 247.235 746.462 256.876 749.361 260.811L750.04 261.75C753.935 266.991 758.004 269.986 762.852 274.1C764.282 275.314 766.581 277.995 768.156 278.765C769.175 279.262 772.553 279.309 773.818 279.48C769.501 279.667 768.665 279.884 765.664 283.191L764.469 284.619C761.283 287.293 752.973 293.753 752.046 297.662Z"/>
	<path fill="#1D333C" d="M640.688 1095.45C641.293 1094.31 641.713 1093.23 642.1 1092C639.838 1090.89 636.962 1091.19 634.447 1091.11L619.197 1090.82L561.75 1090.83L533.793 1091.81C528.023 1091.75 521.757 1090.69 516.139 1089.34L515.108 1029C514.978 1025.31 513.442 1020.62 514.3 1017.1C515.216 1013.35 514.97 1009.2 515 1005.34L514.632 982.695L462.813 1035.15C452.097 1046.07 440.267 1055.79 431.998 1068.86L431.832 1064.59C431.852 1057.35 431.681 1052.39 437.187 1047L451.846 1031.38C459.283 1023.91 514.287 971.957 514.635 968.355C515.922 955.037 515.167 941.051 515.169 927.654C515.171 919.351 516.016 909.894 514.779 901.736C514.347 898.891 513.28 897.111 511.486 894.917C510.866 894.899 510.208 894.651 509.625 894.863C508.93 895.115 507.513 896.805 506.87 897.427L497.637 907.185L427.611 975.906C417.151 986.165 406.757 998.888 394.89 1007.52C392.824 1009.03 390.545 1009.74 388.125 1010.47L388.118 1009.12L388.125 1007.08C388.13 1007.03 388.42 1004.76 388.481 1004.62C389.678 1001.98 396.382 996.534 398.625 994.288L451.125 943.425C455.936 938.748 460.157 933.276 464.812 928.423C469.54 923.494 475.184 919.309 480.148 914.593L506.225 889.413C496.686 877.568 484.66 867.592 473.977 856.832L411.812 794.021C403.654 785.958 394.683 778.494 387.24 769.74C385.5 767.693 382.534 764.819 381.361 762.479C380.266 760.297 388.691 752.563 390.698 750.756L433.986 707.988L450.689 692.196L490.124 652.606C492.604 650.19 514.726 630.214 514.844 629.49C515.389 626.143 515.769 618.792 515.094 615.51C514.721 613.701 469.645 577.972 463.634 569.441L463.535 557.625C463.439 555.55 462.529 553.19 463.453 551.232L463.949 550.324C462.434 546.285 457.349 542.753 454.201 539.85L441.727 527.719L402.949 488.768C396.855 482.21 391.108 473.893 384.484 468.075C383.098 466.856 382.488 466.377 382.125 464.457L383.25 463.537C388.356 465.055 391.912 469.013 395.521 472.716L412.685 490.875L440.302 517.875C447.811 525.41 455.006 534.151 463.5 540.568C464.564 539.281 464.402 538.749 464.625 537.139C471.558 542.613 478.019 545.7 480.676 554.692C481.366 557.026 481.884 560.056 483.24 562.09C484.938 564.639 487.898 566.737 490.089 568.875C497.488 576.093 504.852 583.935 513 590.293C514.574 589.32 514.8 588.288 515.015 586.5C516.275 576.043 514.61 564.859 514.573 554.323L515.175 497.554L514.753 479.302C514.589 475.948 513.588 470.463 515.004 467.383L515.625 466.154C514.376 461.235 515.228 454.467 515.288 449.32C522.685 447.48 531.37 448.239 538.975 448.072L613.462 448.302C613.488 444.473 614.384 437.677 612.75 434.383C611.42 434.374 610.801 434.293 609.489 433.875C608.785 431.016 608.027 428.187 606.218 425.806C604.395 423.407 601.815 421.371 599.752 419.16L575.051 394.624L523.603 343.487C527.757 340.495 531.632 336.556 536.062 334.115C538.386 332.835 539.761 332.932 542.25 333.62L602.459 395.342L616.164 408.88C618.296 410.979 620.953 412.969 621.92 415.875L621.16 418.065C620.735 419.592 620.964 420.638 621.706 422.015C623.02 424.453 623.266 425.784 623.231 428.569L623.329 433.125C627.618 436.625 631.099 442.873 633.318 447.921L633.632 448.664L679.5 449.139L693.556 448.209C694.957 448.105 697.821 448.24 699.048 447.79C701.116 447.031 711.841 435.069 714.193 432.729L768.525 379.206L779.361 367.135C789.887 380.288 802.578 392.019 814.13 404.289L841.822 433.842C846.22 438.495 849.985 443.758 855.418 447.213C857.205 448.35 860.328 448.042 862.479 448.17C866.919 448.436 871.859 449.457 876.249 448.565C880.795 447.642 885.059 445.109 889.802 444.027L894.853 447.274C897.251 449.042 905.685 448.136 908.931 448.144C922.816 448.176 937.057 448.795 950.897 447.576C951.982 442.966 955.516 440.511 958.818 437.375L959.05 437.931L958.73 439.301C957.853 442.783 955.372 445.175 953.068 447.802L1019.97 447.878L1021.65 467.281C1021.74 469.163 1021.63 468.19 1022.01 469.903C1023.37 476.159 1023.17 483.198 1023.84 489.614C1024.02 491.359 1023.8 493.39 1025.06 494.633C1025.84 495.404 1026.45 496.194 1027.11 497.063C1029.64 500.367 1032.69 502.565 1036.4 504.375L1036.79 505.239C1037.82 506.966 1039.57 507.942 1041.2 509.041L1041.63 509.953C1039.26 509.607 1036.73 506.978 1035.14 505.203C1032.8 502.606 1026.64 500.486 1023.32 498.61L1023.02 524.069L1022.96 589.699L1024.66 1039.14C1024.29 1046.16 1025.28 1053.08 1025.28 1060.08C1025.29 1069.9 1022.72 1079.62 1024.76 1089.38C1024.99 1090.48 1025.12 1092.8 1025.64 1093.74C1026.62 1095.53 1030.11 1098.08 1031.66 1099.63L1040.9 1109.73C1050.22 1119.78 1058.1 1131.3 1067.96 1140.79C1058.54 1135.7 1052.36 1127.71 1045.35 1119.87C1038.59 1112.31 1032.01 1104.9 1025.99 1096.69C1025.19 1095.6 1025.07 1094.67 1024.88 1093.37C1021.36 1092.02 1016.23 1093.15 1012.45 1093.07C1007.47 1092.96 1002.51 1091.92 997.5 1091.81L956.468 1092.01C936.151 1091.87 916.175 1089.13 895.817 1091.81C893.088 1092.17 890.361 1091.25 887.625 1091.13C880.955 1090.84 874.344 1092.08 867.702 1092.34C864.603 1092.47 861.315 1091.71 858.311 1092.39L857.516 1093.45C853.781 1098.37 849.178 1101.58 844.93 1105.92L806.625 1144.39L790.135 1159.86C787.491 1162.37 784.353 1164.9 782.135 1167.79C780.876 1169.43 780.569 1169.91 780.899 1171.99C781.421 1175.3 785.415 1179.29 787.067 1182.41C785.236 1180.56 783.256 1178.26 781.125 1176.78C779.28 1175.5 777.135 1175 775.496 1173.41C772.713 1170.71 770.638 1167.38 767.844 1164.65L706.733 1106.17C702.82 1102.5 699.904 1098.14 695.625 1094.79L694.814 1095L694.305 1097.85C693.09 1096.43 692.839 1095.72 692.625 1093.86L691.983 1093.71C690.604 1093.22 689.593 1092.17 688.5 1091.24C674.633 1088.68 659.686 1090.21 645.809 1092.25L641.25 1095.75L640.688 1095.45ZM863.58 1061.96L871.954 1062.09L995.763 1062.34C995.719 1047.51 997.196 1031.27 995.362 1016.61L995.747 475.373L540.752 476.139L540.795 1062.51L863.58 1061.96ZM514.249 654.105L405.68 762.026C407.279 764.958 410.14 767.441 412.469 769.838L425.891 783.289L466.424 823.746L488.303 845.468C492.06 849.295 510.415 869.929 514.059 870.319C515.346 850.255 513.988 829.775 514.094 809.651L513.992 757.994C514.122 746.877 515.02 735.672 514.577 724.562C514.504 722.713 514.023 720.372 512.844 718.875C509.968 715.223 508.158 714.476 506.904 709.5C505.704 704.737 504.261 698.639 506.955 694.125C508.891 690.882 512.244 687.766 513.743 684.378C514.702 682.211 514.186 678.03 514.195 675.651C514.22 668.568 514.81 661.132 514.249 654.105Z"/>
	<defs>
		<linearGradient id="gradient_2" gradientUnits="userSpaceOnUse" x1="1022.6259" y1="1031.8257" x2="513.01135" y2="505.2995">
			<stop offset="0" stop-color="#A9AAAB"/>
			<stop offset="1" stop-color="#E8E5DA"/>
		</linearGradient>
	</defs>
	<path fill="url(#gradient_2)" d="M863.58 1061.96L540.795 1062.51L540.752 476.139L995.747 475.373L995.362 1016.61C997.196 1031.27 995.719 1047.51 995.763 1062.34L871.954 1062.09L863.58 1061.96ZM555.173 478.564C552.784 479.892 550.336 480.926 549.528 483.772C548.338 487.964 550.12 493.495 552.41 497.063C554.321 500.043 557.975 503.285 559.122 506.513C559.929 508.784 559.9 514.58 561.532 515.827C562.381 513.697 562.94 511.683 563.421 509.442L563.54 508.735C565.461 500.054 579.235 496.354 573.26 485.448C571.062 481.439 565.899 479.64 561.669 478.684C559.565 478.209 557.307 478.426 555.173 478.564Z"/>
	<path fill="#C0BEBB" d="M817.568 1024.53L832.992 1024.45C834.472 1024.91 836.002 1025.29 837.382 1026C836.848 1027.32 837.206 1026.67 836.254 1027.93L839.25 1027.7L840.187 1028.65C841.5 1029.94 842.836 1030.51 844.504 1031.25C845.728 1034.04 847.222 1035.48 850.125 1036.62C851.91 1037.33 854.223 1037.63 856.132 1037.62C856.549 1039.67 856.877 1039.86 858.375 1041.37L859.037 1041.37C861.207 1041.4 862.7 1041.69 864.736 1042.43L865.808 1045.5C864.244 1047.51 864.732 1048.25 864.916 1050.72L865.875 1051.12C866.171 1050.52 866.364 1049.8 866.918 1049.42L867.023 1050.59L867.661 1054.41C866.887 1056.09 865.623 1057.6 866.25 1059.38L867.051 1059.43C869.085 1059.69 870.48 1060.75 871.954 1062.09L863.58 1061.96C861.857 1060.65 860.085 1060.66 858.526 1059.19C858.347 1057.55 858.275 1056.09 857.513 1054.61C856.95 1053.51 857.024 1054 856.925 1052.7C856.793 1050.97 856.844 1049.23 856.405 1047.54C855.67 1044.7 855.297 1044.27 856.132 1041.38C852.993 1038.92 848.301 1038.27 845.755 1036.06C844.212 1034.73 844.335 1034.3 844.132 1032.38C842.664 1031.54 839.759 1029.53 838.138 1029.37C836.027 1029.16 831.28 1032.22 828.814 1032.88C825.041 1028.73 822.979 1031.43 818.832 1029.38L817.568 1024.53Z"/>
	<path fill="#1D333C" d="M641.544 563.599L642.578 563.503C644.828 563.466 646.778 563.389 648.435 564.9L648.237 588.047L582.235 588.504L574.613 588.389C574.522 580.356 574.116 572.207 575.238 564.232L641.544 563.599Z"/>
	<path fill="#1D333C" d="M576.756 948.13L648.85 948.26L649.319 949.128C649.731 950.873 649.423 953.606 649.434 955.443C649.463 960.385 650.499 967.943 647.903 972.111C637.513 973.365 626.49 972.651 616.023 972.653L575.351 972.49C574.255 965.986 573.011 953.476 576.756 948.13Z"/>
	<path fill="#1D333C" d="M645.548 612.359L648.038 612.635C649.05 614.885 648.67 617.477 648.679 619.923L648.714 637.391L577.312 637.464L576.192 637.286C573.276 634.127 574.896 617.788 574.913 612.754L645.548 612.359Z"/>
	<path fill="#1D333C" d="M574.872 514.607L648.704 514.387L648.092 539.23L574.741 539.322L574.872 514.607Z"/>
	<path fill="#1D333C" d="M647.81 661.104C649.039 662.926 648.652 665.413 648.697 667.603L648.792 685.904C640.558 686.773 631.752 686.146 623.452 686.161L575.412 686.256C573.351 679.396 574.647 668.731 574.694 661.424L647.81 661.104Z"/>
	<path fill="#1D333C" d="M575.424 898.775L648.715 898.823C649.204 906.713 650.203 915.536 648.698 923.312L575.352 923.593C574.237 915.919 574.04 906.418 575.424 898.775Z"/>
	<path fill="#1D333C" d="M607.096 850.126L648.438 850.337L648.599 875.35L615.562 875.464L574.489 875.946L574.58 850.468L607.096 850.126Z"/>
	<defs>
		<linearGradient id="gradient_3" gradientUnits="userSpaceOnUse" x1="917.20856" y1="1026.0513" x2="918.29614" y2="1062.0543">
			<stop offset="0" stop-color="#707476"/>
			<stop offset="1" stop-color="#8C9191"/>
		</linearGradient>
	</defs>
	<path fill="url(#gradient_3)" d="M958.883 1023.38C960.203 1015.39 959.258 1006.09 959.197 997.962L958.999 951.273C958.991 944.856 958.224 937.515 959.759 931.259L960.032 1001.66C960.094 1006.18 959.022 1016.97 961.201 1020.21C963.823 1024.11 963.557 1028.34 967.98 1031.04C969.214 1034.02 970.061 1036.31 970.386 1039.55C970.941 1045.06 972.852 1050.43 970.284 1055.72C969.808 1056.71 969.643 1057.67 969.46 1058.73L971.25 1061.07L994.48 1060.87L995.362 1016.61C997.196 1031.27 995.719 1047.51 995.763 1062.34L871.954 1062.09C870.48 1060.75 869.085 1059.69 867.051 1059.43L866.25 1059.38C865.623 1057.6 866.887 1056.09 867.661 1054.41L867.023 1050.59L866.918 1049.42C866.364 1049.8 866.171 1050.52 865.875 1051.12L864.916 1050.72C864.732 1048.25 864.244 1047.51 865.808 1045.5C866.502 1045.13 867.475 1045.05 867.889 1044.38C868.374 1043.59 867.462 1040.86 867.762 1039.88C867.99 1039.13 868.504 1038.51 868.875 1037.83C869.001 1034.67 868.106 1032.69 866.72 1029.95L870.375 1027.09C872.749 1027.62 875.164 1028.62 877.5 1029.04C880.831 1029.63 883.213 1028.98 885.737 1031.73L890.888 1032.99C892.608 1033.2 893.201 1032.96 894.71 1033.94L895.875 1034.72L897.436 1033.45C896.745 1032.83 895.932 1032.52 895.946 1031.52C895.985 1028.68 896.985 1025.97 899.027 1024.11C902.899 1028.55 903.949 1025.02 908.25 1027.39L914.41 1023.67C921.797 1022.38 930.936 1022.74 938.371 1023.6C944.227 1022.22 952.898 1022.67 958.883 1023.38Z"/>
	<path fill="#676A6C" d="M938.371 1023.6C944.227 1022.22 952.898 1022.67 958.883 1023.38C959.62 1024.98 960.982 1027.26 960.004 1029L959.438 1029.56L958.718 1027.78L958.134 1028.25C958.343 1029.52 958.66 1030.72 958.515 1032C955.91 1033.58 950.322 1032.9 947.364 1032.32C946.082 1032.08 945.464 1032.09 944.212 1032.38L942.375 1035.28C941.048 1034.85 940.693 1034.33 939.75 1033.34L938.703 1033.26C937.786 1033.17 936.911 1032.82 936 1032.69C933.898 1032.38 932.379 1032.49 930.206 1031.91C929.014 1031.59 929.404 1031.71 927.843 1031.8L927.514 1032.73C926.162 1032.04 925.555 1032.82 924.233 1032.55C923.813 1032.47 922.135 1030.76 921.694 1030.38L920.524 1032L921.782 1032.38L923.285 1033.88C923.335 1035.9 923.979 1038.71 922.5 1040.34C922.159 1040.71 921.425 1041.13 920.984 1041.41L919.995 1040.62L920.625 1039.12L919.673 1037.73L918.015 1038.16C916.951 1036.95 916.413 1036.2 916.504 1034.44C916.533 1033.87 916.86 1033.26 917.096 1032.75L916.292 1031.73C914.291 1032.11 913.575 1033.42 912 1032.37L905.878 1032.78C904.774 1032.56 903.846 1032.16 902.937 1031.49C901.883 1030.71 900.193 1030.89 898.875 1030.79L898.664 1032C900.607 1032.82 900.876 1033.39 902.156 1035.11C903.6 1035.34 904.661 1035.49 905.946 1036.23L906.977 1036.88C909.433 1038.14 909.728 1037.75 912.257 1036.88C913.335 1037.84 913.761 1038.38 914.211 1039.77L912.783 1040.65C910.188 1039.59 907.472 1040.17 904.976 1039L904.125 1038.5L901.5 1039.45C900.414 1038.67 899.304 1038.06 898.125 1037.43L899.149 1039.88L898.125 1041.36C896.671 1039.75 897.011 1038.63 895.937 1037.1C894.516 1035.09 888.184 1033.51 885.737 1031.73L890.888 1032.99C892.608 1033.2 893.201 1032.96 894.71 1033.94L895.875 1034.72L897.436 1033.45C896.745 1032.83 895.932 1032.52 895.946 1031.52C895.985 1028.68 896.985 1025.97 899.027 1024.11C902.899 1028.55 903.949 1025.02 908.25 1027.39L914.41 1023.67C921.797 1022.38 930.936 1022.74 938.371 1023.6Z"/>
	<path fill="#454F52" d="M916.223 1024.75L925.125 1024.43C926.484 1025.79 926.353 1025.93 926.546 1027.88C925.142 1029.19 923.854 1029.31 922.03 1029.7L920.477 1027.83C918.795 1028.33 918.516 1028.68 916.802 1028.17C915.482 1027.78 914.868 1027.71 913.55 1027.88L912.796 1026.75L913.4 1026.42L916.223 1024.75Z"/>
	<path fill="#1D333C" d="M641.894 709.856L648.324 710.144L647.741 826.958L574.59 826.497L574.552 803.208L624.736 802.693L624.756 781.687L623.625 780.69L574.565 780.614L574.282 757.434C590.436 755.991 608.717 755.909 624.851 757.5L625.179 734.89L574.585 734.588L574.634 709.965L641.894 709.856Z"/>
	<path fill="#1D333C" d="M671.338 514.444L694.777 514.371L695.21 973.337L671.489 973.627L671.338 514.444Z"/>
	<path fill="#1D333C" d="M718.132 513.833L960.248 514.302L960.098 531.06C960.048 533.822 960.534 536.584 958.928 538.875C954.307 540.401 947.003 539.494 942.084 539.484L902.758 539.405L763.875 539.343C761.504 541.3 763.568 542.973 761.625 545.263L743.84 545.144L743.433 563.838L800.884 563.532L959.362 563.77C959.585 570.566 961.27 582.006 958.913 588.196L717.648 588.56L717.794 550.678C717.805 548.429 717.106 542.681 717.841 540.75C718.039 540.228 718.53 539.87 718.875 539.43C721.29 539.339 724.446 538.864 726.683 539.867L727.499 540.375L728.217 540C730.58 534.846 736.131 533.253 739.33 528.75L738.75 528.133C735.024 529.353 733.633 531.646 730.708 533.934L730.875 530.144C728.702 530.589 726.358 531.217 724.219 530.38C722.463 529.692 720.153 531.519 718.01 531.615L718.132 513.833Z"/>
	<path fill="#1D333C" d="M784.848 1024.39L641.109 1024.54L601.103 1024.54C593.008 1024.53 584.317 1025.17 576.375 1023.6C572.204 1018.97 573.73 1005.86 574.009 999.891C583.913 998.287 595.483 999.294 605.559 999.222L680.928 999.203L935.178 999.079L935.319 875.585C924.353 874.436 912.535 875.286 901.493 875.295L836.489 875.275L820.195 875.283C816.82 875.284 813.188 875.669 810 874.465C809.471 873.752 809.282 873.6 808.995 872.625C807.862 868.771 808.006 854.453 809.625 850.886C810.632 850.378 811.522 850.039 812.666 849.995L840.733 850.16L913.288 850.11L940.578 850.327C945.532 850.34 951.164 849.825 956.057 850.495C957.58 850.704 958.445 851.342 959.523 852.375C961.072 859.727 959.853 869.718 959.819 877.336L959.759 931.259C958.224 937.515 958.991 944.856 958.999 951.273L959.197 997.962C959.258 1006.09 960.203 1015.39 958.883 1023.38C952.898 1022.67 944.227 1022.22 938.371 1023.6C930.936 1022.74 921.797 1022.38 914.41 1023.67L908.25 1027.39C903.949 1025.02 902.899 1028.55 899.027 1024.11C896.985 1025.97 895.985 1028.68 895.946 1031.52C895.932 1032.52 896.745 1032.83 897.436 1033.45L895.875 1034.72L894.71 1033.94C893.201 1032.96 892.608 1033.2 890.888 1032.99L885.737 1031.73C883.213 1028.98 880.831 1029.63 877.5 1029.04C875.164 1028.62 872.749 1027.62 870.375 1027.09L866.72 1029.95C868.106 1032.69 869.001 1034.67 868.875 1037.83C868.504 1038.51 867.99 1039.13 867.762 1039.88C867.462 1040.86 868.374 1043.59 867.889 1044.38C867.475 1045.05 866.502 1045.13 865.808 1045.5L864.736 1042.43C862.7 1041.69 861.207 1041.4 859.037 1041.37L858.375 1041.37C856.877 1039.86 856.549 1039.67 856.132 1037.62C854.223 1037.63 851.91 1037.33 850.125 1036.62C847.222 1035.48 845.728 1034.04 844.504 1031.25C842.836 1030.51 841.5 1029.94 840.187 1028.65L839.25 1027.7L836.254 1027.93C837.206 1026.67 836.848 1027.32 837.382 1026C836.002 1025.29 834.472 1024.91 832.992 1024.45L817.568 1024.53L784.848 1024.39Z"/>
	<path fill="#454F52" d="M882.048 1023.85L914.41 1023.67L908.25 1027.39C903.949 1025.02 902.899 1028.55 899.027 1024.11C896.985 1025.97 895.985 1028.68 895.946 1031.52C895.932 1032.52 896.745 1032.83 897.436 1033.45L895.875 1034.72L894.71 1033.94C893.201 1032.96 892.608 1033.2 890.888 1032.99L885.737 1031.73C883.213 1028.98 880.831 1029.63 877.5 1029.04C875.164 1028.62 872.749 1027.62 870.375 1027.09L866.72 1029.95C868.106 1032.69 869.001 1034.67 868.875 1037.83C868.504 1038.51 867.99 1039.13 867.762 1039.88C867.462 1040.86 868.374 1043.59 867.889 1044.38C867.475 1045.05 866.502 1045.13 865.808 1045.5L864.736 1042.43C862.7 1041.69 861.207 1041.4 859.037 1041.37L858.375 1041.37C856.877 1039.86 856.549 1039.67 856.132 1037.62C854.223 1037.63 851.91 1037.33 850.125 1036.62C847.222 1035.48 845.728 1034.04 844.504 1031.25C842.836 1030.51 841.5 1029.94 840.187 1028.65L839.25 1027.7L836.254 1027.93C837.206 1026.67 836.848 1027.32 837.382 1026C836.002 1025.29 834.472 1024.91 832.992 1024.45L817.568 1024.53L784.848 1024.39C795.12 1022.19 808.112 1023.77 818.625 1023.82L882.048 1023.85Z"/>
	<path fill="#41484C" d="M851.191 1025.68L858.876 1027.12C859.27 1029.2 859.909 1030.61 858.657 1032.51L851.401 1028.13L851.191 1025.68Z"/>
	<path fill="#7D7E7F" d="M832.992 1024.45L849.002 1024.88C850.657 1024.97 850.004 1024.71 851.146 1025.56L851.191 1025.68L851.401 1028.13L858.657 1032.51L859.76 1034.25L858.05 1036.5C858.976 1038.34 860.096 1038.95 862.106 1039.57L862.931 1039.79L864.736 1042.43C862.7 1041.69 861.207 1041.4 859.037 1041.37L858.375 1041.37C856.877 1039.86 856.549 1039.67 856.132 1037.62C854.223 1037.63 851.91 1037.33 850.125 1036.62C847.222 1035.48 845.728 1034.04 844.504 1031.25C842.836 1030.51 841.5 1029.94 840.187 1028.65L839.25 1027.7L836.254 1027.93C837.206 1026.67 836.848 1027.32 837.382 1026C836.002 1025.29 834.472 1024.91 832.992 1024.45Z"/>
	<path fill="#1D333C" d="M718.514 612.346L918.599 612.537L943.045 612.38C946.43 612.273 952.2 611.286 955.278 612.378C956.789 612.914 958.581 614.546 959.111 616.125C960.867 621.348 959.817 629.971 959.859 635.617L959.988 686.051L960.168 818.016C960.135 820.181 959.935 821.852 959.125 823.875C958.542 824.227 958.029 824.741 957.375 824.93C955.592 825.443 951.586 824.914 949.577 824.911L926.641 824.943L809.953 825.012C808.963 819.197 809.433 812.845 809.446 806.952L809.454 779.605L809.915 684.13L788.283 684.461L787.534 947.237C789.172 948.28 882.028 947.655 894.72 947.89L894.699 923.829C892.782 922.563 835.89 923.769 828.557 923.821C824.792 923.847 814.676 924.95 811.5 923.268C810.77 922.882 810.25 922.189 809.625 921.649C808.971 919.152 808.67 916.825 808.583 914.249C808.473 910.985 807.523 902.664 809.767 900.555C811.003 899.394 812.673 899.063 814.289 898.802C823.741 897.274 835.165 898.524 844.841 898.498L918.001 898.538L917.414 973.878L910.785 973.616C900.725 972.537 890.185 973.106 880.055 972.957L800.423 972.968L775.778 973.083C773.551 973.087 768.317 973.518 766.5 972.601C765.674 972.184 765.051 971.45 764.326 970.875C763.132 966.134 763.527 961.092 763.536 956.233L763.648 932.113L763.792 661.104L787.438 661.237L860.261 660.918L897.144 660.818C903.322 660.798 911.298 659.877 917.189 661.686C917.616 662.328 917.81 662.519 917.995 663.375C918.555 665.976 917.915 670.228 917.867 673.009L917.802 695.839L917.992 800.774L935.266 800.923L935.616 636.48L742.403 637.306L741.609 973.006L718.173 972.815C716.74 956.75 717.804 939.656 717.841 923.478L717.69 838.369L717.836 689.814L717.723 615.398C717.754 614.274 718.064 613.36 718.514 612.346Z"/>
	<path fill="#C0BEBB" d="M884.209 685.144L894.052 684.9L894.103 800.994L876.153 801.063L876.549 706.848L859.706 706.581C857.317 706.558 855.014 706.045 852.973 707.337L852.517 714.937L851.544 801.105L833.135 800.95L833.055 685.275L884.209 685.144Z"/>
</svg>
